# xmcd
#
# Track frame offsets:
#  150
#  19587
#  34920
#  49062
#  64428
#  77003
#  83906
#  96680
#  107855
#  123103
#  135913
#
# Disc length: 2199 seconds
#
# Revision: 0
# Processed by: cddbd v1.5.2PL0 Copyright (c) Steve Scherf et al.
# Submitted via: AltoMP3_Maker 3.0
#
DISCID=8f08950b
DTITLE=Joachim Nielsen - Nykter
DYEAR=1900
DGENRE=
TTITLE0=Nykter
TTITLE1=Selvmedlidenhet
TTITLE2=Aldri stol på en fyllik
TTITLE3=Tilbake til deg
TTITLE4=Lørdagskveld
TTITLE5=Sprettkniv
TTITLE6=De fire årstider
TTITLE7=Mine pupiller
TTITLE8=Skinnet bedrar
TTITLE9=For pen
TTITLE10=Aleine
EXTD=
EXTT0=
EXTT1=
EXTT2=
EXTT3=
EXTT4=
EXTT5=
EXTT6=
EXTT7=
EXTT8=
EXTT9=
EXTT10=
PLAYORDER=
